<?xml version="1.0" encoding="UTF-8" standalone="no"?>
<!DOCTYPE svg PUBLIC "-//W3C//DTD SVG 1.1//EN" "http://www.w3.org/Graphics/SVG/1.1/DTD/svg11.dtd">
<svg width="100%" height="100%" viewBox="0 0 550 551" version="1.1" xmlns="http://www.w3.org/2000/svg" xmlns:xlink="http://www.w3.org/1999/xlink" xml:space="preserve" xmlns:serif="http://www.serif.com/" style="fill-rule:evenodd;clip-rule:evenodd;stroke-linejoin:round;stroke-miterlimit:2;">
    <g transform="matrix(1,0,0,1,-237.25,-236.75)">
        <g>
            <g transform="matrix(1,0,0,1,0.25,38.531727)">
                <g transform="matrix(0.996377,0,0,1,-256.206522,-1)">
                    <path d="M641.318,269.877C612.909,288.063 588.559,312.044 569.942,340.148L616.044,367.748L604.323,387.184L558.311,359.638C542.765,388.72 533.011,421.356 530.592,456L598.375,456L598.375,490L495.516,490C495.174,484.377 495,478.709 495,473C495,336.576 594.194,223.138 724.331,200.937L724.331,236.524C701.969,240.919 680.713,248.411 661.028,258.534L685.83,303.117L665.926,314.11L641.318,269.877Z" style="fill:white;"/>
                </g>
                <g transform="matrix(-0,-0.996377,1,-0,37.781727,1241.924794)">
                    <path d="M641.318,269.877C612.909,288.063 588.559,312.044 569.942,340.148L616.044,367.748L604.323,387.184L558.311,359.638C542.765,388.72 533.011,421.356 530.592,456L598.375,456L598.375,490L495.516,490C495.174,484.377 495,478.709 495,473C495,336.576 594.194,223.138 724.331,200.937L724.331,236.524C701.969,240.919 680.713,248.411 661.028,258.534L685.83,303.117L665.926,314.11L641.318,269.877Z" style="fill:white;"/>
                </g>
                <g transform="matrix(-0.996377,-0,0,-1,1279.706522,947.936545)">
                    <path d="M641.318,269.877C612.909,288.063 588.559,312.044 569.942,340.148L616.044,367.748L604.323,387.184L558.311,359.638C542.765,388.72 533.011,421.356 530.592,456L598.375,456L598.375,490L495.516,490C495.174,484.377 495,478.709 495,473C495,336.576 594.194,223.138 724.331,200.937L724.331,236.524C701.969,240.919 680.713,248.411 661.028,258.534L685.83,303.117L665.926,314.11L641.318,269.877Z" style="fill:white;"/>
                </g>
                <g transform="matrix(-0,0.996377,-1,-0,985.718273,-294.988249)">
                    <path d="M641.318,269.877C612.909,288.063 588.559,312.044 569.942,340.148L616.044,367.748L604.323,387.184L558.311,359.638C542.765,388.72 533.011,421.356 530.592,456L598.375,456L598.375,490L495.516,490C495.174,484.377 495,478.709 495,473C495,336.576 594.194,223.138 724.331,200.937L724.331,236.524C701.969,240.919 680.713,248.411 661.028,258.534L685.83,303.117L665.926,314.11L641.318,269.877Z" style="fill:white;"/>
                </g>
            </g>
            <g transform="matrix(1.227778,0,0,1.227778,-168.188889,-116.622222)">
                <g transform="matrix(0.944444,0,0,0.9375,387.333333,328.25)">
                    <rect x="114" y="100" width="36" height="192" style="fill:white;"/>
                </g>
                <g transform="matrix(0.944444,0,0,0.9375,471.333333,328.25)">
                    <rect x="114" y="100" width="36" height="192" style="fill:white;"/>
                </g>
                <g transform="matrix(0,-0.944444,0.9375,0,370.25,678.666667)">
                    <rect x="114" y="100" width="36" height="192" style="fill:white;"/>
                </g>
                <g transform="matrix(0,-0.944444,0.9375,0,370.25,594.666667)">
                    <rect x="114" y="100" width="36" height="192" style="fill:white;"/>
                </g>
            </g>
        </g>
    </g>
</svg>
