<?xml version="1.0" encoding="UTF-8"?>
<!--Generator: Apple Native CoreSVG 341-->
<!DOCTYPE svg
PUBLIC "-//W3C//DTD SVG 1.1//EN"
       "http://www.w3.org/Graphics/SVG/1.1/DTD/svg11.dtd">
<svg version="1.1" xmlns="http://www.w3.org/2000/svg" xmlns:xlink="http://www.w3.org/1999/xlink" viewBox="0 0 30.2263 20.8635">
 <g>
  <rect height="20.8635" opacity="0" width="30.2263" x="0" y="0"/>
  <path d="M6.76995 20.1892L22.5023 20.1892C26.8544 20.1892 30.2263 16.8875 30.2263 12.6106C30.2263 8.2896 26.9094 4.94466 22.3779 4.94466C20.7209 1.73452 17.8078 0 13.996 0C9.16268 0 5.15778 3.41991 4.45218 8.34637C1.83984 9.23816 0.24886 11.4128 0.24886 14.0522C0.24886 17.5706 2.90159 20.1892 6.76995 20.1892ZM6.8808 16.9864C4.73809 16.9864 3.45165 15.8915 3.45165 14.1197C3.45165 12.5665 4.45815 11.5 6.41926 10.9871C7.12027 10.8141 7.35741 10.5363 7.47591 9.69541C8.04365 5.68694 10.5368 3.20279 13.996 3.20279C16.5069 3.20279 18.5792 4.63881 19.9633 7.24459C20.2983 7.89939 20.656 8.10756 21.4425 8.10756C24.9851 8.10756 27.0207 9.91952 27.0207 12.6933C27.0207 15.1731 25.0917 16.9864 22.4342 16.9864Z" fill="white" fill-opacity="0.85"/>
 </g>
</svg>
