<?xml version="1.0" encoding="UTF-8"?>
<!--Generator: Apple Native CoreSVG 341-->
<!DOCTYPE svg
PUBLIC "-//W3C//DTD SVG 1.1//EN"
       "http://www.w3.org/Graphics/SVG/1.1/DTD/svg11.dtd">
<svg version="1.1" xmlns="http://www.w3.org/2000/svg" xmlns:xlink="http://www.w3.org/1999/xlink" viewBox="0 0 27.0143 26.66">
 <g>
  <rect height="26.66" opacity="0" width="27.0143" x="0" y="0"/>
  <path d="M12.1254 26.6483L14.5374 26.6483C15.7172 26.6483 16.689 25.8826 16.9508 24.7648L17.3384 23.0747L17.4448 23.0354L18.9252 23.9386C19.9197 24.5417 21.1209 24.3735 21.9534 23.541L23.6209 21.8942C24.4893 21.0348 24.6037 19.8219 24.0007 18.848L23.0918 17.3883L23.125 17.2964L24.7972 16.8882C25.9123 16.6263 26.6628 15.6518 26.6628 14.4747L26.6628 12.1902C26.6628 11.022 25.915 10.0503 24.7972 9.77671L23.1306 9.36576L23.0946 9.2683L24.0034 7.80855C24.6065 6.83473 24.4948 5.62456 23.6237 4.7624L21.9562 3.11282C21.1264 2.28305 19.9252 2.09424 18.9307 2.71518L17.4503 3.61847L17.3384 3.57356L16.9508 1.88352C16.689 0.756697 15.7172 0 14.5374 0L12.1254 0C10.9455 0 9.97382 0.774603 9.71193 1.88352L9.32165 3.57356L9.2097 3.61847L7.73205 2.71518C6.73756 2.11214 5.53358 2.28305 4.7038 3.11282L3.03909 4.7624C2.16797 5.62456 2.05355 6.83473 2.65936 7.80855L3.56541 9.2683L3.53222 9.36576L1.86561 9.77671C0.729838 10.0593 0 11.022 0 12.1902L0 14.4747C0 15.6518 0.75051 16.6263 1.86561 16.8882L3.53775 17.2964L3.56818 17.3883L2.66212 18.848C2.05631 19.8219 2.1735 21.0348 3.04185 21.8942L4.70657 23.541C5.53911 24.3735 6.74309 24.5417 7.73758 23.9386L9.21523 23.0354L9.32165 23.0747L9.71193 24.7648C9.97382 25.8826 10.9455 26.6483 12.1254 26.6483ZM12.7516 23.5668C12.5613 23.5668 12.4738 23.4758 12.4476 23.3151L11.7803 20.4895C10.949 20.3495 10.093 19.9877 9.32056 19.4743L6.83749 20.9909C6.70582 21.0874 6.56862 21.0847 6.44866 20.9502L5.62988 20.1404C5.50097 20.0115 5.51611 19.8798 5.59196 19.7516L7.13541 17.274C6.64206 16.4953 6.30156 15.6752 6.14987 14.8439L3.3242 14.1883C3.16356 14.1621 3.07257 14.0746 3.07257 13.8843L3.07257 12.7778C3.07257 12.5848 3.16079 12.5089 3.3242 12.4738L6.14711 11.8154C6.3167 10.9821 6.6414 10.1295 7.12988 9.38257L5.58919 6.90504C5.51058 6.77402 5.48649 6.64235 5.6154 6.51068L6.4459 5.70638C6.56862 5.58366 6.69752 5.58089 6.83749 5.66569L9.30607 7.17399C9.92637 6.74054 10.8919 6.34014 11.7741 6.14987L12.4476 3.33315C12.4738 3.17251 12.5613 3.08152 12.7516 3.08152L13.9112 3.08152C14.1014 3.08152 14.1801 3.17251 14.2124 3.33315L14.8915 6.1554C15.7613 6.33395 16.6 6.68959 17.3512 7.17676L19.7957 5.6836C19.9474 5.5988 20.0645 5.59261 20.199 5.72429L21.0178 6.52858C21.1494 6.66026 21.1315 6.79193 21.0529 6.92294L19.5301 9.38257C20.0124 10.1206 20.3433 10.9821 20.504 11.7975L23.3386 12.4738C23.4992 12.5089 23.5902 12.5848 23.5902 12.7778L23.5902 13.8843C23.5902 14.0746 23.4875 14.1621 23.3386 14.1883L20.5012 14.8619C20.3495 15.6662 20.0118 16.5222 19.5246 17.274L21.0412 19.7336C21.126 19.8619 21.1439 19.9936 21.0122 20.1225L20.1962 20.9323C20.0645 21.0667 19.9301 21.0606 19.7957 20.973L17.3574 19.4743C16.5401 19.9877 15.8212 20.3137 14.8915 20.4895L14.2124 23.3151C14.1801 23.4758 14.1014 23.5668 13.9112 23.5668ZM13.318 17.6995C15.7369 17.6995 17.6933 15.7431 17.6933 13.3241C17.6933 10.9052 15.7369 8.94883 13.318 8.94883C10.908 8.94883 8.94265 10.9052 8.94265 13.3241C8.94265 15.7431 10.908 17.6995 13.318 17.6995ZM13.318 15.0594C12.3634 15.0594 11.5827 14.2876 11.5827 13.3241C11.5827 12.3607 12.3634 11.5889 13.318 11.5889C14.2814 11.5889 15.0532 12.3607 15.0532 13.3241C15.0532 14.2876 14.2814 15.0594 13.318 15.0594Z" fill="white" fill-opacity="0.85"/>
 </g>
</svg>
